<mxfile host="app.diagrams.net" modified="2024-06-03T12:37:03.693Z" agent="Mozilla/5.0 (Windows NT 10.0; Win64; x64) AppleWebKit/537.36 (KHTML, like Gecko) Chrome/125.0.0.0 Safari/537.36" etag="rFTJ8mG33bn2W0YvdXxi" version="24.4.13" type="device">
  <diagram name="Page-1" id="YPz6SLvyPm99CvRsZrQo">
    <mxGraphModel dx="1850" dy="497" grid="1" gridSize="10" guides="1" tooltips="1" connect="1" arrows="1" fold="1" page="1" pageScale="1" pageWidth="850" pageHeight="1100" math="0" shadow="0">
      <root>
        <mxCell id="0" />
        <mxCell id="1" parent="0" />
        <mxCell id="yTsd609q6HTBkEdfSmL_-41" value="" style="rounded=1;whiteSpace=wrap;html=1;fillColor=#fff2cc;strokeColor=#d6b656;" parent="1" vertex="1">
          <mxGeometry x="410" y="130" width="160" height="60" as="geometry" />
        </mxCell>
        <mxCell id="yTsd609q6HTBkEdfSmL_-10" value="" style="ellipse;html=1;shape=endState;fillColor=#000000;strokeColor=#ff0000;" parent="1" vertex="1">
          <mxGeometry x="1230" y="510" width="30" height="30" as="geometry" />
        </mxCell>
        <mxCell id="yTsd609q6HTBkEdfSmL_-11" value="Tourist" style="text;html=1;align=center;verticalAlign=middle;whiteSpace=wrap;rounded=0;" parent="1" vertex="1">
          <mxGeometry x="50" y="20" width="60" height="30" as="geometry" />
        </mxCell>
        <mxCell id="yTsd609q6HTBkEdfSmL_-12" value="Guide" style="text;html=1;align=center;verticalAlign=middle;whiteSpace=wrap;rounded=0;" parent="1" vertex="1">
          <mxGeometry x="661" y="20" width="60" height="30" as="geometry" />
        </mxCell>
        <mxCell id="yTsd609q6HTBkEdfSmL_-13" value="System" style="text;html=1;align=center;verticalAlign=middle;whiteSpace=wrap;rounded=0;" parent="1" vertex="1">
          <mxGeometry x="390" y="20" width="60" height="30" as="geometry" />
        </mxCell>
        <mxCell id="yTsd609q6HTBkEdfSmL_-14" value="" style="rounded=1;whiteSpace=wrap;html=1;fillColor=#fff2cc;strokeColor=#d6b656;" parent="1" vertex="1">
          <mxGeometry x="-350" y="86" width="170" height="70" as="geometry" />
        </mxCell>
        <mxCell id="yTsd609q6HTBkEdfSmL_-15" value="&lt;font style=&quot;font-size: 13px;&quot;&gt;Opening CreateComplexTourRequestWindow&lt;/font&gt;&lt;div style=&quot;font-size: 13px;&quot;&gt;&lt;font style=&quot;font-size: 13px;&quot;&gt;&lt;br&gt;&lt;/font&gt;&lt;/div&gt;&lt;div style=&quot;font-size: 13px;&quot;&gt;&lt;br&gt;&lt;/div&gt;" style="text;html=1;align=center;verticalAlign=middle;whiteSpace=wrap;rounded=0;" parent="1" vertex="1">
          <mxGeometry x="-297.5" y="103.5" width="65" height="30" as="geometry" />
        </mxCell>
        <mxCell id="yTsd609q6HTBkEdfSmL_-17" value="Adding ordinary tour request information" style="rounded=1;whiteSpace=wrap;html=1;fillColor=#fff2cc;strokeColor=#d6b656;" parent="1" vertex="1">
          <mxGeometry x="-140" y="84.5" width="135" height="68" as="geometry" />
        </mxCell>
        <mxCell id="yTsd609q6HTBkEdfSmL_-23" value="Recieving notification about active requests" style="shape=step;perimeter=stepPerimeter;whiteSpace=wrap;html=1;fixedSize=1;fillColor=#fff2cc;strokeColor=#d6b656;" parent="1" vertex="1">
          <mxGeometry x="670" y="62.5" width="200" height="55" as="geometry" />
        </mxCell>
        <mxCell id="yTsd609q6HTBkEdfSmL_-25" value="" style="html=1;shadow=0;dashed=0;align=center;verticalAlign=middle;shape=mxgraph.arrows2.arrow;dy=0.01;dx=45;direction=north;notch=0;rotation=90;fillColor=#fff2cc;strokeColor=#d6b656;" parent="1" vertex="1">
          <mxGeometry x="440" y="-20" width="60" height="220" as="geometry" />
        </mxCell>
        <mxCell id="yTsd609q6HTBkEdfSmL_-26" value="Noted that there are active requests" style="text;html=1;align=center;verticalAlign=middle;whiteSpace=wrap;rounded=0;" parent="1" vertex="1">
          <mxGeometry x="400" y="80" width="90" height="30" as="geometry" />
        </mxCell>
        <mxCell id="yTsd609q6HTBkEdfSmL_-28" value="Opening Tour Request Window and choosing Complex Requests" style="rounded=1;whiteSpace=wrap;html=1;fillColor=#fff2cc;strokeColor=#d6b656;" parent="1" vertex="1">
          <mxGeometry x="940" y="60" width="120" height="60" as="geometry" />
        </mxCell>
        <mxCell id="yTsd609q6HTBkEdfSmL_-29" value="Choose Tour request" style="rounded=1;whiteSpace=wrap;html=1;fillColor=#fff2cc;strokeColor=#d6b656;" parent="1" vertex="1">
          <mxGeometry x="940" y="177.5" width="120" height="60" as="geometry" />
        </mxCell>
        <mxCell id="yTsd609q6HTBkEdfSmL_-30" value="Choose part of tour request and accept it" style="rounded=1;whiteSpace=wrap;html=1;fillColor=#fff2cc;strokeColor=#d6b656;" parent="1" vertex="1">
          <mxGeometry x="940" y="275" width="120" height="60" as="geometry" />
        </mxCell>
        <mxCell id="yTsd609q6HTBkEdfSmL_-40" value="Added &quot;OnWait&quot; request to list of requests" style="text;html=1;align=center;verticalAlign=middle;whiteSpace=wrap;rounded=0;" parent="1" vertex="1">
          <mxGeometry x="440" y="147.5" width="90" height="30" as="geometry" />
        </mxCell>
        <mxCell id="yTsd609q6HTBkEdfSmL_-44" value="Checks if the date of OnWait request is less than 48 hours away from chosen f begin date of first part" style="rhombus;whiteSpace=wrap;html=1;fontColor=#000000;fillColor=#ffffc0;strokeColor=#ff0000;" parent="1" vertex="1">
          <mxGeometry x="480" y="380" width="80" height="110" as="geometry" />
        </mxCell>
        <mxCell id="yTsd609q6HTBkEdfSmL_-45" value="no" style="edgeStyle=orthogonalEdgeStyle;html=1;align=left;verticalAlign=bottom;endArrow=open;endSize=8;strokeColor=#ff0000;rounded=0;" parent="1" source="yTsd609q6HTBkEdfSmL_-44" target="yTsd609q6HTBkEdfSmL_-44" edge="1">
          <mxGeometry x="-1" relative="1" as="geometry">
            <mxPoint x="665" y="460" as="targetPoint" />
          </mxGeometry>
        </mxCell>
        <mxCell id="yTsd609q6HTBkEdfSmL_-46" value="yes" style="edgeStyle=orthogonalEdgeStyle;html=1;align=left;verticalAlign=top;endArrow=open;endSize=8;strokeColor=#ff0000;rounded=0;" parent="1" source="yTsd609q6HTBkEdfSmL_-44" edge="1">
          <mxGeometry x="-1" relative="1" as="geometry">
            <mxPoint x="520" y="600" as="targetPoint" />
          </mxGeometry>
        </mxCell>
        <mxCell id="yTsd609q6HTBkEdfSmL_-47" value="Marks As Invalid&amp;nbsp;" style="rounded=1;whiteSpace=wrap;html=1;fillColor=#fff2cc;strokeColor=#d6b656;" parent="1" vertex="1">
          <mxGeometry x="460" y="590" width="120" height="60" as="geometry" />
        </mxCell>
        <mxCell id="yTsd609q6HTBkEdfSmL_-49" value="" style="endArrow=open;html=1;rounded=0;exitX=0;exitY=0.5;exitDx=0;exitDy=0;strokeColor=#f50000;" parent="1" source="yTsd609q6HTBkEdfSmL_-41" edge="1">
          <mxGeometry width="50" height="50" relative="1" as="geometry">
            <mxPoint x="450" y="220" as="sourcePoint" />
            <mxPoint x="480" y="435" as="targetPoint" />
            <Array as="points">
              <mxPoint x="370" y="160" />
              <mxPoint x="370" y="325" />
              <mxPoint x="370" y="435" />
            </Array>
          </mxGeometry>
        </mxCell>
        <mxCell id="yTsd609q6HTBkEdfSmL_-52" value="" style="endArrow=none;html=1;rounded=0;" parent="1" edge="1">
          <mxGeometry width="50" height="50" relative="1" as="geometry">
            <mxPoint x="320" y="860" as="sourcePoint" />
            <mxPoint x="320" as="targetPoint" />
          </mxGeometry>
        </mxCell>
        <mxCell id="yTsd609q6HTBkEdfSmL_-54" value="" style="endArrow=none;html=1;rounded=0;" parent="1" edge="1">
          <mxGeometry width="50" height="50" relative="1" as="geometry">
            <mxPoint x="600" y="840.800048828125" as="sourcePoint" />
            <mxPoint x="600" as="targetPoint" />
          </mxGeometry>
        </mxCell>
        <mxCell id="yTsd609q6HTBkEdfSmL_-69" value="" style="ellipse;html=1;shape=startState;fillColor=#000000;strokeColor=#ff0000;" parent="1" vertex="1">
          <mxGeometry x="-470" y="98.5" width="30" height="30" as="geometry" />
        </mxCell>
        <mxCell id="yTsd609q6HTBkEdfSmL_-70" value="" style="edgeStyle=orthogonalEdgeStyle;html=1;verticalAlign=bottom;endArrow=open;endSize=8;strokeColor=#ff0000;rounded=0;" parent="1" source="yTsd609q6HTBkEdfSmL_-69" edge="1">
          <mxGeometry relative="1" as="geometry">
            <mxPoint x="-360" y="113.5" as="targetPoint" />
          </mxGeometry>
        </mxCell>
        <mxCell id="yTsd609q6HTBkEdfSmL_-85" value="" style="endArrow=open;endFill=1;endSize=12;html=1;rounded=0;strokeColor=#f50000;" parent="1" edge="1">
          <mxGeometry width="160" relative="1" as="geometry">
            <mxPoint x="-180" y="117.5" as="sourcePoint" />
            <mxPoint x="-140" y="117.5" as="targetPoint" />
          </mxGeometry>
        </mxCell>
        <mxCell id="yTsd609q6HTBkEdfSmL_-86" value="Has entered wanted number of ordinary tours?" style="rhombus;whiteSpace=wrap;html=1;fontColor=#000000;fillColor=#ffffc0;strokeColor=#ff0000;" parent="1" vertex="1">
          <mxGeometry x="44" y="86" width="85" height="65" as="geometry" />
        </mxCell>
        <mxCell id="yTsd609q6HTBkEdfSmL_-88" value="no" style="edgeStyle=elbowEdgeStyle;html=1;align=left;verticalAlign=top;endArrow=open;endSize=8;strokeColor=#ff0000;rounded=0;entryX=0.432;entryY=1.051;entryDx=0;entryDy=0;exitX=0.5;exitY=1;exitDx=0;exitDy=0;entryPerimeter=0;" parent="1" source="yTsd609q6HTBkEdfSmL_-86" target="yTsd609q6HTBkEdfSmL_-17" edge="1">
          <mxGeometry x="-1" relative="1" as="geometry">
            <mxPoint x="240" y="350" as="targetPoint" />
            <mxPoint x="140" y="270" as="sourcePoint" />
            <Array as="points">
              <mxPoint x="-10" y="200" />
            </Array>
          </mxGeometry>
        </mxCell>
        <mxCell id="yTsd609q6HTBkEdfSmL_-90" value="" style="endArrow=open;endFill=1;endSize=12;html=1;rounded=0;strokeColor=#f50000;entryX=0;entryY=0.5;entryDx=0;entryDy=0;" parent="1" edge="1" target="yTsd609q6HTBkEdfSmL_-86">
          <mxGeometry width="160" relative="1" as="geometry">
            <mxPoint x="-4" y="118" as="sourcePoint" />
            <mxPoint x="26" y="118" as="targetPoint" />
          </mxGeometry>
        </mxCell>
        <mxCell id="yTsd609q6HTBkEdfSmL_-94" value="" style="html=1;points=[[0,0,0,0,5],[0,1,0,0,-5],[1,0,0,0,5],[1,1,0,0,-5]];perimeter=orthogonalPerimeter;outlineConnect=0;targetShapes=umlLifeline;portConstraint=eastwest;newEdgeStyle={&quot;curved&quot;:0,&quot;rounded&quot;:0};fillColor=#FF0000;" parent="1" vertex="1">
          <mxGeometry x="300" y="71" width="10" height="80" as="geometry" />
        </mxCell>
        <mxCell id="yTsd609q6HTBkEdfSmL_-95" value="" style="endArrow=open;endFill=1;endSize=12;html=1;rounded=0;exitX=1;exitY=0.238;exitDx=0;exitDy=0;exitPerimeter=0;strokeColor=#f50000;" parent="1" source="yTsd609q6HTBkEdfSmL_-94" edge="1">
          <mxGeometry width="160" relative="1" as="geometry">
            <mxPoint x="330" y="90" as="sourcePoint" />
            <mxPoint x="360" y="90" as="targetPoint" />
          </mxGeometry>
        </mxCell>
        <mxCell id="yTsd609q6HTBkEdfSmL_-96" value="" style="endArrow=open;endFill=1;endSize=12;html=1;rounded=0;exitX=1;exitY=1;exitDx=0;exitDy=-5;exitPerimeter=0;strokeColor=#f70202;" parent="1" source="yTsd609q6HTBkEdfSmL_-94" edge="1">
          <mxGeometry width="160" relative="1" as="geometry">
            <mxPoint x="310" y="130" as="sourcePoint" />
            <mxPoint x="410" y="146" as="targetPoint" />
          </mxGeometry>
        </mxCell>
        <mxCell id="yTsd609q6HTBkEdfSmL_-97" value="" style="endArrow=open;endFill=1;endSize=12;html=1;rounded=0;strokeColor=#f50000;" parent="1" edge="1">
          <mxGeometry width="160" relative="1" as="geometry">
            <mxPoint x="580" y="90" as="sourcePoint" />
            <mxPoint x="680" y="90" as="targetPoint" />
          </mxGeometry>
        </mxCell>
        <mxCell id="yTsd609q6HTBkEdfSmL_-98" value="" style="endArrow=open;endFill=1;endSize=12;html=1;rounded=0;strokeColor=#f50000;" parent="1" edge="1">
          <mxGeometry width="160" relative="1" as="geometry">
            <mxPoint x="870" y="90" as="sourcePoint" />
            <mxPoint x="940" y="90" as="targetPoint" />
          </mxGeometry>
        </mxCell>
        <mxCell id="yTsd609q6HTBkEdfSmL_-99" value="" style="endArrow=open;endFill=1;endSize=12;html=1;rounded=0;exitX=0.5;exitY=1;exitDx=0;exitDy=0;strokeColor=#f50000;" parent="1" source="yTsd609q6HTBkEdfSmL_-28" edge="1">
          <mxGeometry width="160" relative="1" as="geometry">
            <mxPoint x="970" y="180" as="sourcePoint" />
            <mxPoint x="1000" y="180" as="targetPoint" />
          </mxGeometry>
        </mxCell>
        <mxCell id="yTsd609q6HTBkEdfSmL_-100" value="" style="endArrow=open;endFill=1;endSize=12;html=1;rounded=0;strokeColor=#f50000;entryX=0.5;entryY=0;entryDx=0;entryDy=0;" parent="1" target="yTsd609q6HTBkEdfSmL_-30" edge="1">
          <mxGeometry width="160" relative="1" as="geometry">
            <mxPoint x="1000" y="240" as="sourcePoint" />
            <mxPoint x="1040" y="260" as="targetPoint" />
          </mxGeometry>
        </mxCell>
        <mxCell id="yTsd609q6HTBkEdfSmL_-102" value="" style="endArrow=open;endFill=1;endSize=12;html=1;rounded=0;strokeColor=#f70202;exitX=0;exitY=0.5;exitDx=0;exitDy=0;entryX=0;entryY=0.5;entryDx=0;entryDy=0;entryPerimeter=0;" parent="1" source="yTsd609q6HTBkEdfSmL_-104" target="yTsd609q6HTBkEdfSmL_-127" edge="1">
          <mxGeometry width="160" relative="1" as="geometry">
            <mxPoint x="841" y="275" as="sourcePoint" />
            <mxPoint x="540" y="320" as="targetPoint" />
          </mxGeometry>
        </mxCell>
        <mxCell id="yTsd609q6HTBkEdfSmL_-104" value="Has previously accepted request" style="rhombus;whiteSpace=wrap;html=1;fontColor=#000000;fillColor=#ffffc0;strokeColor=#ff0000;" parent="1" vertex="1">
          <mxGeometry x="680" y="290" width="80" height="40" as="geometry" />
        </mxCell>
        <mxCell id="yTsd609q6HTBkEdfSmL_-105" value="no" style="edgeStyle=orthogonalEdgeStyle;html=1;align=left;verticalAlign=bottom;endArrow=open;endSize=8;strokeColor=#ff0000;rounded=0;exitX=0.5;exitY=1;exitDx=0;exitDy=0;" parent="1" source="yTsd609q6HTBkEdfSmL_-104" edge="1">
          <mxGeometry x="-0.942" y="-10" relative="1" as="geometry">
            <mxPoint x="1230" y="510" as="targetPoint" />
            <mxPoint x="690" y="390" as="sourcePoint" />
            <Array as="points">
              <mxPoint x="720" y="360" />
              <mxPoint x="981" y="360" />
              <mxPoint x="981" y="410" />
              <mxPoint x="1000" y="410" />
              <mxPoint x="1000" y="510" />
            </Array>
            <mxPoint as="offset" />
          </mxGeometry>
        </mxCell>
        <mxCell id="yTsd609q6HTBkEdfSmL_-110" value="yes" style="text;html=1;align=center;verticalAlign=middle;whiteSpace=wrap;rounded=0;" parent="1" vertex="1">
          <mxGeometry x="630" y="275" width="60" height="30" as="geometry" />
        </mxCell>
        <mxCell id="yTsd609q6HTBkEdfSmL_-115" value="Has accepted all wanted complex tours" style="rhombus;whiteSpace=wrap;html=1;fontColor=#000000;fillColor=#ffffc0;strokeColor=#ff0000;" parent="1" vertex="1">
          <mxGeometry x="680" y="415" width="80" height="40" as="geometry" />
        </mxCell>
        <mxCell id="yTsd609q6HTBkEdfSmL_-116" value="no" style="edgeStyle=orthogonalEdgeStyle;html=1;align=left;verticalAlign=bottom;endArrow=open;endSize=8;strokeColor=#ff0000;rounded=0;entryX=1.003;entryY=0.547;entryDx=0;entryDy=0;entryPerimeter=0;" parent="1" target="yTsd609q6HTBkEdfSmL_-29" edge="1">
          <mxGeometry x="-1" relative="1" as="geometry">
            <mxPoint x="1070.04" y="207.5" as="targetPoint" />
            <mxPoint x="770.0036363636361" y="435.0181818181818" as="sourcePoint" />
            <Array as="points">
              <mxPoint x="1241" y="435" />
              <mxPoint x="1241" y="210" />
              <mxPoint x="1070" y="210" />
            </Array>
          </mxGeometry>
        </mxCell>
        <mxCell id="yTsd609q6HTBkEdfSmL_-117" value="yes" style="edgeStyle=orthogonalEdgeStyle;html=1;align=left;verticalAlign=top;endArrow=open;endSize=8;strokeColor=#ff0000;rounded=0;exitX=0.5;exitY=1;exitDx=0;exitDy=0;" parent="1" source="yTsd609q6HTBkEdfSmL_-115" edge="1">
          <mxGeometry x="-1" y="20" relative="1" as="geometry">
            <mxPoint x="1230" y="537" as="targetPoint" />
            <mxPoint x="739.9966666666668" y="462.9966666666666" as="sourcePoint" />
            <Array as="points">
              <mxPoint x="720" y="537" />
              <mxPoint x="1230" y="537" />
            </Array>
            <mxPoint x="-20" y="17" as="offset" />
          </mxGeometry>
        </mxCell>
        <mxCell id="yTsd609q6HTBkEdfSmL_-121" value="" style="endArrow=open;endFill=1;endSize=12;html=1;rounded=0;entryX=0.5;entryY=0;entryDx=0;entryDy=0;strokeColor=#f50000;" parent="1" target="yTsd609q6HTBkEdfSmL_-10" edge="1">
          <mxGeometry width="160" relative="1" as="geometry">
            <mxPoint x="570" y="600" as="sourcePoint" />
            <mxPoint x="1120" y="470" as="targetPoint" />
            <Array as="points">
              <mxPoint x="1310" y="600" />
              <mxPoint x="1310" y="470" />
              <mxPoint x="1245" y="470" />
            </Array>
          </mxGeometry>
        </mxCell>
        <mxCell id="yTsd609q6HTBkEdfSmL_-125" value="" style="endArrow=open;endFill=1;endSize=12;html=1;rounded=0;strokeColor=#f50000;exitX=1;exitY=0.5;exitDx=0;exitDy=0;entryX=0.5;entryY=1;entryDx=0;entryDy=0;" parent="1" source="yTsd609q6HTBkEdfSmL_-129" target="yTsd609q6HTBkEdfSmL_-10" edge="1">
          <mxGeometry width="160" relative="1" as="geometry">
            <mxPoint x="20" y="200" as="sourcePoint" />
            <mxPoint x="1240" y="520" as="targetPoint" />
            <Array as="points">
              <mxPoint x="10" y="309" />
              <mxPoint x="10" y="560" />
              <mxPoint x="1250" y="560" />
            </Array>
          </mxGeometry>
        </mxCell>
        <mxCell id="yTsd609q6HTBkEdfSmL_-127" value="" style="html=1;shadow=0;dashed=0;align=center;verticalAlign=middle;shape=mxgraph.arrows2.arrow;dy=0.01;dx=45;direction=north;notch=0;rotation=-90;fillColor=#fff2cc;strokeColor=#d6b656;" parent="1" vertex="1">
          <mxGeometry x="430" y="230" width="60" height="160" as="geometry" />
        </mxCell>
        <mxCell id="yTsd609q6HTBkEdfSmL_-128" value="Notes and marks&amp;nbsp; request as accepted&amp;nbsp;" style="text;html=1;align=center;verticalAlign=middle;whiteSpace=wrap;rounded=0;" parent="1" vertex="1">
          <mxGeometry x="445" y="295" width="60" height="30" as="geometry" />
        </mxCell>
        <mxCell id="yTsd609q6HTBkEdfSmL_-129" value="" style="shape=step;perimeter=stepPerimeter;whiteSpace=wrap;html=1;fixedSize=1;rotation=-179;fillColor=#fff2cc;strokeColor=#d6b656;" parent="1" vertex="1">
          <mxGeometry x="90" y="270" width="120" height="80" as="geometry" />
        </mxCell>
        <mxCell id="yTsd609q6HTBkEdfSmL_-130" value="Recieves notification that part of tour&amp;nbsp; has been accepted" style="text;html=1;align=center;verticalAlign=middle;whiteSpace=wrap;rounded=0;" parent="1" vertex="1">
          <mxGeometry x="120" y="295" width="60" height="30" as="geometry" />
        </mxCell>
        <mxCell id="yTsd609q6HTBkEdfSmL_-131" value="" style="endArrow=open;endFill=1;endSize=12;html=1;rounded=0;exitX=1;exitY=0.5;exitDx=0;exitDy=0;exitPerimeter=0;entryX=0;entryY=0.5;entryDx=0;entryDy=0;strokeColor=#f50000;" parent="1" source="yTsd609q6HTBkEdfSmL_-127" target="yTsd609q6HTBkEdfSmL_-129" edge="1">
          <mxGeometry width="160" relative="1" as="geometry">
            <mxPoint x="210" y="310" as="sourcePoint" />
            <mxPoint x="230" y="350" as="targetPoint" />
          </mxGeometry>
        </mxCell>
        <mxCell id="yTsd609q6HTBkEdfSmL_-134" value="" style="html=1;align=left;verticalAlign=bottom;endArrow=open;endSize=8;strokeColor=#ff0000;rounded=0;" parent="1" source="yTsd609q6HTBkEdfSmL_-86" edge="1">
          <mxGeometry x="-1" relative="1" as="geometry">
            <mxPoint x="180" y="119" as="targetPoint" />
            <mxPoint x="245" y="119" as="sourcePoint" />
            <mxPoint as="offset" />
          </mxGeometry>
        </mxCell>
        <mxCell id="hMMA794bXckZEng8y4Wc-10" value="Yes" style="edgeLabel;html=1;align=center;verticalAlign=middle;resizable=0;points=[];" vertex="1" connectable="0" parent="yTsd609q6HTBkEdfSmL_-134">
          <mxGeometry x="-0.14" relative="1" as="geometry">
            <mxPoint as="offset" />
          </mxGeometry>
        </mxCell>
        <mxCell id="yTsd609q6HTBkEdfSmL_-108" value="yes" style="text;html=1;align=center;verticalAlign=middle;whiteSpace=wrap;rounded=0;" parent="1" vertex="1">
          <mxGeometry x="220" y="86" width="60" height="30" as="geometry" />
        </mxCell>
        <mxCell id="hMMA794bXckZEng8y4Wc-1" value="Has entered wanted number of ordinary tours?" style="rhombus;whiteSpace=wrap;html=1;fontColor=#000000;fillColor=#ffffc0;strokeColor=#ff0000;" vertex="1" parent="1">
          <mxGeometry x="180" y="84.5" width="85" height="65" as="geometry" />
        </mxCell>
        <mxCell id="hMMA794bXckZEng8y4Wc-5" value="no" style="edgeStyle=elbowEdgeStyle;html=1;align=left;verticalAlign=top;endArrow=open;endSize=8;strokeColor=#ff0000;rounded=0;entryX=0.162;entryY=1.096;entryDx=0;entryDy=0;entryPerimeter=0;elbow=vertical;" edge="1" parent="1" target="yTsd609q6HTBkEdfSmL_-17">
          <mxGeometry x="-1" relative="1" as="geometry">
            <mxPoint x="-120" y="239.5" as="targetPoint" />
            <mxPoint x="220" y="149.5" as="sourcePoint" />
            <Array as="points">
              <mxPoint x="50" y="230" />
            </Array>
          </mxGeometry>
        </mxCell>
        <mxCell id="hMMA794bXckZEng8y4Wc-8" value="" style="html=1;align=left;verticalAlign=bottom;endArrow=open;endSize=8;strokeColor=#ff0000;rounded=0;" edge="1" parent="1" target="yTsd609q6HTBkEdfSmL_-94">
          <mxGeometry x="-1" relative="1" as="geometry">
            <mxPoint x="300" y="120" as="targetPoint" />
            <mxPoint x="265" y="116.52" as="sourcePoint" />
            <mxPoint as="offset" />
          </mxGeometry>
        </mxCell>
        <mxCell id="hMMA794bXckZEng8y4Wc-11" value="Yes" style="edgeLabel;html=1;align=center;verticalAlign=middle;resizable=0;points=[];" vertex="1" connectable="0" parent="hMMA794bXckZEng8y4Wc-8">
          <mxGeometry x="-0.2898" y="-1" relative="1" as="geometry">
            <mxPoint as="offset" />
          </mxGeometry>
        </mxCell>
      </root>
    </mxGraphModel>
  </diagram>
</mxfile>
